<?xml version="1.0" encoding="utf-8"?>
<svg xmlns="http://www.w3.org/2000/svg">
<g id="watch">
<svg id="timer" viewBox="0 0 238 276">
<path d="m211.314 81.628 4.273-4.287c6.165-6.175 7.291-15.148 2.499-19.94-4.792-4.79-13.752-3.678-19.91 2.496l-4.305 4.311a118.265 118.265 0 0 0-59.684-25.578v-7.67h6.118c8.714 0 15.846-6.966 15.846-15.476 0-8.51-7.132-15.484-15.846-15.484H97.721c-8.714 0-15.846 6.966-15.846 15.484S89.008 30.96 97.722 30.96h6.118v7.67a118.935 118.935 0 0 0-69.052 34A119.238 119.238 0 0 0 .946 141.836a119.313 119.313 0 0 0 15.518 75.474 119.047 119.047 0 0 0 58.389 50.187 118.839 118.839 0 0 0 76.847 3.916 118.988 118.988 0 0 0 63.175-43.991 119.28 119.28 0 0 0 23.089-73.506 119.27 119.27 0 0 0-26.65-72.287zm-92.301 163.319a87.901 87.901 0 0 1-48.884-14.85 88.092 88.092 0 0 1-32.407-39.546 88.23 88.23 0 0 1-5.006-50.911A88.153 88.153 0 0 1 56.8 94.524a87.95 87.95 0 0 1 45.053-24.113 87.87 87.87 0 0 1 50.838 5.017 88.012 88.012 0 0 1 39.486 32.457 88.197 88.197 0 0 1 14.825 48.956 88.177 88.177 0 0 1-25.774 62.301 87.923 87.923 0 0 1-62.214 25.805z" fill="#DEDEDE"/>
</svg>
<svg id="diagram-fill" x="8%" y="20%" viewBox="0 0 238 276">
<circle cx="101" cy="101" r="93" stroke="#D22856" stroke-width="16" fill="#fff"/>
</svg>
<svg id="24" x="29%" y="44%" viewBox="0 0 238 276">
<path d="M48.906 70H1V59.922l17.203-17.39c5.094-5.22 8.422-8.829 9.985-10.829 1.562-2.031 2.687-3.906 3.375-5.625a14.26 14.26 0 0 0 1.03-5.344c0-2.75-.765-4.797-2.296-6.14-1.5-1.344-3.516-2.016-6.047-2.016-2.656 0-5.234.61-7.734 1.828-2.5 1.219-5.11 2.953-7.828 5.203L.811 10.281c3.375-2.875 6.172-4.906 8.391-6.094C11.422 3 13.843 2.095 16.47 1.47c2.624-.658 5.56-.986 8.81-.986 4.282 0 8.063.782 11.344 2.344 3.281 1.563 5.828 3.75 7.64 6.563 1.813 2.812 2.72 6.03 2.72 9.656 0 3.156-.563 6.125-1.688 8.906-1.094 2.75-2.813 5.578-5.156 8.485-2.313 2.906-6.407 7.046-12.282 12.421l-8.812 8.297v.657h29.86V70zm56.391-14.203h-8.25V70H82.89V55.797H53.64V45.719l30.047-44.25h13.359v43.078h8.25v11.25zm-22.406-11.25V32.922c0-1.938.078-4.75.234-8.438.156-3.687.281-5.828.375-6.422h-.375a52.27 52.27 0 0 1-4.172 7.5L66.391 44.547h16.5z" fill="#D22856"/>
</svg>
</g>
</svg>
